<svg xmlns="http://www.w3.org/2000/svg" xmlns:xlink="http://www.w3.org/1999/xlink" width="298" height="57.5" viewBox="0 0 78.846 15.214" xmlns:v="https://vecta.io/nano"><g fill="#182957"><use xlink:href="#B"/><path d="M57.624 6.445q.04 0 .07.005.028.002.048.014.023.01.044.03.02.018.046.05l1.748 2.228q-.01-.08-.014-.157-.002-.078-.002-.145V6.445h.546v3.33h-.32q-.074 0-.122-.023-.048-.023-.094-.083L57.83 7.452q.007.074.01.147.005.07.005.13v2.046H57.3v-3.33h.325zm5.533 0v.5h-1.002v2.822h-.62V6.954H60.53v-.5z"/><use xlink:href="#B" x="9.667"/><path d="M67.607 7.84h.145q.088 0 .145-.023.058-.025.1-.078l.92-1.163q.058-.074.12-.1.065-.03.16-.03h.534L68.6 7.83q-.053.065-.1.108-.048.044-.104.07.076.028.136.078.062.05.12.13l1.156 1.56h-.548q-.1 0-.166-.03-.053-.032-.1-.092l-.942-1.23q-.046-.06-.104-.085-.058-.028-.164-.028h-.196v1.465h-.62V6.443h.62zm-13.11 7.34h-.622v-3.33h.622z"/><use xlink:href="#C"/><path d="M61.7 13.515a1.8 1.8 0 0 1-.122.673c-.08.204-.196.38-.343.528s-.325.262-.532.343a1.87 1.87 0 0 1-.689.122H58.74v-3.33h1.272a1.84 1.84 0 0 1 .689.124c.207.08.385.196.532.343a1.52 1.52 0 0 1 .343.525 1.8 1.8 0 0 1 .122.673zm-.634 0a1.52 1.52 0 0 0-.074-.491 1.03 1.03 0 0 0-.21-.369c-.09-.1-.2-.18-.332-.233a1.13 1.13 0 0 0-.438-.081h-.647v2.345h.647a1.13 1.13 0 0 0 .438-.081.91.91 0 0 0 .332-.23c.09-.1.16-.224.2-.37a1.54 1.54 0 0 0 .074-.493z"/><path d="M65.388 13.515c0 .244-.04.47-.122.68a1.61 1.61 0 0 1-.343.539 1.57 1.57 0 0 1-.532.357 1.81 1.81 0 0 1-.689.127c-.252 0-.482-.042-.69-.127s-.385-.205-.534-.357a1.61 1.61 0 0 1-.343-.539c-.08-.21-.122-.435-.122-.68s.04-.47.122-.677.196-.39.343-.54.327-.27.534-.355a1.8 1.8 0 0 1 .691-.129 1.78 1.78 0 0 1 .689.129 1.57 1.57 0 0 1 .532.357 1.58 1.58 0 0 1 .343.539c.08.207.122.433.122.677zm-.636 0c0-.183-.025-.346-.074-.49s-.117-.27-.207-.37-.2-.18-.332-.233a1.13 1.13 0 0 0-.438-.081c-.163 0-.31.027-.44.08s-.242.13-.334.233-.16.225-.2.37a1.52 1.52 0 0 0-.074.491 1.54 1.54 0 0 0 .074.493c.05.144.12.267.2.37a.93.93 0 0 0 .334.23c.13.054.277.08.44.08a1.13 1.13 0 0 0 .438-.081.91.91 0 0 0 .332-.23 1.03 1.03 0 0 0 .207-.369 1.54 1.54 0 0 0 .074-.493z"/><use xlink:href="#C" x="10.626"/><path d="M71.467 11.85v.493H70v.924h1.163v.477H70v.942h1.477v.495h-2.1v-3.33zm2.327.605c-.017.034-.037.058-.06.07s-.048.02-.078.02-.065-.012-.104-.035l-.136-.08a1.04 1.04 0 0 0-.184-.078c-.07-.025-.15-.037-.246-.037a.71.71 0 0 0-.226.032.46.46 0 0 0-.16.085.35.35 0 0 0-.097.134c-.022.05-.032.107-.032.168 0 .078.022.144.065.196s.103.097.175.134.154.07.246.1l.28.094a2.38 2.38 0 0 1 .283.115.94.94 0 0 1 .246.166c.072.066.13.147.173.244a.84.84 0 0 1 .067.352 1.15 1.15 0 0 1-.078.424.97.97 0 0 1-.226.343c-.098.097-.22.174-.362.23s-.306.083-.5.083a1.56 1.56 0 0 1-.313-.032c-.113-.022-.202-.05-.297-.088a1.51 1.51 0 0 1-.265-.138c-.083-.054-.154-.114-.22-.18l.18-.297a.22.22 0 0 1 .06-.053c.025-.015.05-.023.08-.023.038 0 .08.016.124.048l.157.104c.06.038.133.074.214.106a.82.82 0 0 0 .297.046c.177 0 .313-.04.4-.124s.145-.205.145-.362a.33.33 0 0 0-.067-.214c-.043-.055-.1-.1-.173-.138a1.25 1.25 0 0 0-.246-.097l-.28-.085c-.095-.03-.2-.068-.28-.1a.91.91 0 0 1-.246-.168.78.78 0 0 1-.175-.258c-.043-.104-.065-.233-.065-.385a.92.92 0 0 1 .071-.355.93.93 0 0 1 .212-.306 1.06 1.06 0 0 1 .343-.214c.135-.054.3-.08.463-.08a1.54 1.54 0 0 1 .544.092 1.23 1.23 0 0 1 .424.258zm1.392 2.725h-.622v-3.33h.622zm3.684 0h-.48c-.054 0-.098-.013-.134-.04a.24.24 0 0 1-.074-.101l-.25-.68h-1.38l-.25.68c-.012.035-.037.068-.074.097s-.08.044-.13.044h-.48l1.308-3.33h.634zm-2.156-1.258h1.062l-.405-1.108-.062-.173-.065-.22-.065.22-.06.177z"/><path d="M25.408.066v10.662A4.41 4.41 0 0 1 21 15.136c-2.434 0-4.412-1.973-4.408-4.408L16.6.066h2.65m0 0V10.68c0 .947.78 1.715 1.742 1.715s1.742-.768 1.742-1.715V.066H25.4M0 .066h10.793c2.464 0 4.462 1.998 4.462 4.462a4.46 4.46 0 0 1-4.462 4.462L0 8.973V6.3m0 0h10.745a1.75 1.75 0 0 0 1.736-1.763 1.75 1.75 0 0 0-1.736-1.763H0v-2.7m0 6.208h10.793c2.464 0 4.462 1.998 4.462 4.462a4.46 4.46 0 0 1-4.462 4.462L0 15.18V12.5m0 0h10.745a1.75 1.75 0 0 0 1.736-1.763 1.75 1.75 0 0 0-1.736-1.763H0v-2.7m12.095 5.547h.112" opacity="1"/></g><g fill="#0193ac"><path d="M35.622 15.136V4.474A4.41 4.41 0 0 0 31.215.066c-2.434 0-4.412 1.973-4.408 4.408l.017 10.662h2.65m0 0V4.52c0-.947.78-1.715 1.742-1.715s1.742.768 1.742 1.715v10.615h2.666" opacity="1"/><path d="M41.772 15.136V4.474A4.41 4.41 0 0 0 37.364.066c-2.434 0-4.412 1.973-4.408 4.408l.017 10.662h2.65m0 0V4.52c0-.947.78-1.715 1.742-1.715s1.742.768 1.742 1.715v10.615h2.666m10.3.001V4.474A4.41 4.41 0 0 0 47.675.066c-2.434 0-4.412 1.973-4.408 4.408l.017 10.662h2.65m0 0V4.52c0-.947.78-1.715 1.742-1.715s1.742.768 1.742 1.715v10.615h2.666" opacity="1"/></g><defs ><path id="B" d="M55.256 9.276q.18 0 .32-.06.143-.06.24-.168.1-.108.15-.263.053-.154.053-.346V6.445h.62V8.44q0 .297-.097.55-.094.25-.274.435-.18.182-.435.286-.256.1-.576.1-.32 0-.576-.1-.256-.104-.435-.286-.177-.184-.274-.435-.094-.253-.094-.55V6.445h.62v1.993q0 .19.05.346.053.154.15.265.097.108.237.168.143.06.323.06z"/><path id="C" d="M55.578 11.85c.028 0 .05.002.07.005s.035.006.048.014.03.016.044.03.03.03.046.05l1.748 2.228-.014-.157-.002-.145V11.85h.546v3.33h-.32c-.05 0-.1-.008-.122-.023s-.064-.043-.094-.083l-1.742-2.218.01.147.005.13v2.046h-.546v-3.33h.325z"/></defs></svg>